<svg width="214" height="139" viewBox="0 0 214 139" fill="none" xmlns="http://www.w3.org/2000/svg">
<path d="M162.779 38.9093C159.826 38.9093 156.937 39.1766 154.123 39.6364C147.104 16.7014 125.361 0 99.6063 0C68.159 0 42.6823 24.8917 42.6823 55.5893C42.6823 58.3265 42.8963 61.021 43.2922 63.6727C41.7693 63.4843 40.2364 63.3879 38.7019 63.384C17.3233 63.384 0 80.2992 0 101.181C0 122.063 17.3233 139 38.7019 139H85.6V96.2308H58.85L107 42.7692L155.15 96.2308H128.4V139H162.779C191.059 139 214 116.589 214 88.96C214 61.3097 191.059 38.9093 162.779 38.9093V38.9093Z" fill="white"/>
</svg>
